<?xml version="1.0" encoding="UTF-8"?>
<!DOCTYPE svg PUBLIC "-//W3C//DTD SVG 1.1//EN" "http://www.w3.org/Graphics/SVG/1.1/DTD/svg11.dtd">
<!-- Creator: CorelDRAW 2018 (64-Bit) -->
<svg xmlns="http://www.w3.org/2000/svg" xml:space="preserve" width="5.82677in" height="8.26772in" version="1.1" style="shape-rendering:geometricPrecision; text-rendering:geometricPrecision; image-rendering:optimizeQuality; fill-rule:evenodd; clip-rule:evenodd"
viewBox="0 0 5826.77 8267.72"
 xmlns:xlink="http://www.w3.org/1999/xlink"
 enable-background="new 0 0 512 512">
 <defs>
  <style type="text/css">
   <![CDATA[
    .fil1 {fill:#554E56}
    .fil4 {fill:#666666}
    .fil0 {fill:#766D78}
    .fil3 {fill:#999999}
    .fil2 {fill:#CCCCCC}
    .fil6 {fill:#E5EAEE}
    .fil5 {fill:#F4F4F7}
   ]]>
  </style>
 </defs>
 <g id="Layer_x0020_1">
  <metadata id="CorelCorpID_0Corel-Layer"/>
  <path class="fil0" d="M4935.78 5047.19c0,966.77 -786.56,1753.33 -1753.33,1753.33l-538.13 -0c-966.77,0 -1753.33,-786.56 -1753.33,-1753.33 0,-86.25 70,-156.25 156.25,-156.25 86.35,0 156.25,70 156.25,156.25 0,794.48 646.35,1440.83 1440.83,1440.83l538.12 0c794.48,0 1440.83,-646.35 1440.83,-1440.83 0,-86.25 69.9,-156.25 156.25,-156.25 86.25,0 156.25,70 156.25,156.25l-0 0z"/>
  <path class="fil1" d="M4935.78 5047.19c0,966.77 -786.56,1753.33 -1753.33,1753.33l-269.06 -0 0 -312.5 269.06 0c794.48,0 1440.83,-646.35 1440.83,-1440.83 0,-86.25 69.9,-156.25 156.25,-156.25 86.25,0 156.25,70 156.25,156.25l-0 0z"/>
  <g id="_2289004765232">
   <path class="fil2" d="M5272.03 4083.13l0 339.06c0,86.25 -70,156.25 -156.25,156.25l-1789.27 -0c-48.85,0 -95,-22.92 -124.48,-61.87 -69.17,-91.25 -174.37,-143.54 -288.65,-143.54 -114.27,0 -219.48,52.29 -288.65,143.54 -29.48,38.96 -75.63,61.87 -124.48,61.87l-1789.27 0c-86.25,0 -156.25,-70 -156.25,-156.25l0 -339.06c0,-571.56 207.08,-1122.92 583.02,-1552.5 136.67,-156.25 292.19,-292.5 461.87,-406.35 43.02,-28.96 173.13,75.42 173.13,75.42 0,0 65.1,-216.67 119.9,-243.02 190.52,-91.56 393.44,-157.6 603.65,-195.1l834.17 0c210.21,37.5 413.13,103.54 603.65,195.21 48.54,23.23 106.46,278.23 106.46,278.23 0,0 137.71,-143.54 186.56,-110.73 169.69,113.85 325.21,250.1 461.87,406.35 375.94,429.58 583.02,980.94 583.02,1552.5l0 0z"/>
  </g>
  <path class="fil3" d="M5272.03 4083.13l0 339.06c0,86.25 -70,156.25 -156.25,156.25l-1789.27 -0c-48.85,0 -95,-22.92 -124.48,-61.87 -69.17,-91.25 -174.37,-143.54 -288.65,-143.54l0 -2611.46 417.08 0c210.21,37.5 413.13,103.54 603.65,195.21 48.54,23.23 106.46,278.23 106.46,278.23 0,0 137.71,-143.54 186.56,-110.73 169.69,113.85 325.21,250.1 461.87,406.35 375.94,429.58 583.02,980.94 583.02,1552.5l0 0z"/>
  <g id="_2289004763984">
   <path class="fil3" d="M3382.14 1882.09l0 936.67c0,236.87 -192.81,429.69 -429.69,429.69l-78.13 0c-236.87,0 -429.69,-192.81 -429.69,-429.69l0 -936.67c0,-228.75 186.15,-414.9 414.9,-414.9l107.71 0c228.75,0 414.9,186.15 414.9,414.9l0 -0z"/>
  </g>
  <g id="_2289004763632">
   <path class="fil3" d="M1871.51 3144.28c-77.19,0 -144.27,-57.08 -154.69,-135.73l-117.19 -884.27c93.65,-62.92 191.56,-118.85 293.02,-167.6l133.96 1010.83c12.37,93.17 -60.02,176.77 -155.1,176.77l0 -0z"/>
  </g>
  <g id="_2289004763408">
   <path class="fil4" d="M4227.14 2124.28l-117.19 884.27c-11.39,86 -90.43,145.77 -175.42,134.37 -85.52,-11.35 -145.73,-89.9 -134.37,-175.42l133.96 -1010.73c101.46,48.65 199.37,104.58 293.02,167.5l0 0z"/>
  </g>
  <g id="_2289004763824">
   <path class="fil3" d="M2624.84 4952.92c35.83,47.29 41.77,110.73 15.31,163.85 -26.46,53.13 -80.63,86.67 -139.9,86.67l-2097.29 0c-86.25,0 -156.25,-70 -156.25,-156.25l0 -312.92c0,-258.23 210.1,-468.33 468.33,-468.33l1785.21 0c59.27,0 113.44,33.54 139.9,86.67 26.46,53.12 20.52,116.56 -15.31,163.85 -47.81,63.23 -73.13,138.75 -73.13,218.23 0,79.48 25.31,155 73.13,218.23l-0 0z"/>
  </g>
  <g id="_2289004761040">
   <path class="fil4" d="M5580.05 4734.28l0 312.92c0,86.25 -70,156.25 -156.25,156.25l-2097.29 -0c-59.27,0 -113.54,-33.54 -139.9,-86.67 -26.46,-53.13 -20.52,-116.56 15.31,-163.85 47.81,-63.23 73.13,-138.75 73.13,-218.23 0,-79.48 -25.31,-155 -73.13,-218.23 -35.83,-47.29 -41.77,-110.73 -15.31,-163.85 26.46,-53.13 80.63,-86.67 139.9,-86.67l1785.21 -0c258.23,0 468.33,210.1 468.33,468.33l-0 0z"/>
  </g>
  <g id="_2289004761232">
   <path class="fil5" d="M3465.89 4734.69c0,121.46 -38.65,236.67 -111.77,333.33 -105.63,139.37 -266.25,219.17 -440.73,219.17 -174.48,0 -335.1,-79.79 -440.63,-219.06 -73.23,-96.77 -111.87,-211.98 -111.87,-333.44 0,-121.46 38.65,-236.67 111.77,-333.33 105.63,-139.37 266.25,-219.17 440.73,-219.17 174.48,0 335.1,79.79 440.63,219.06 73.23,96.77 111.87,211.98 111.87,333.44z"/>
  </g>
  <path class="fil4" d="M2952.45 3248.44l-39.06 0 0 -1781.25 53.85 0c228.75,0 414.9,186.15 414.9,414.9l0 936.67c0,236.87 -192.81,429.69 -429.69,429.69l0 -0z"/>
  <path class="fil6" d="M3465.89 4734.69c0,121.46 -38.65,236.67 -111.77,333.33 -105.63,139.37 -266.25,219.17 -440.73,219.17l0 -1105c174.48,0 335.1,79.79 440.63,219.06 73.23,96.77 111.87,211.98 111.87,333.44z"/>
  <g id="_2289004760336">
   <path class="fil0" d="M2913.39 4060.52c-377.52,0 -674.17,305.92 -674.17,674.17 0,367.18 295.63,674.17 674.17,674.17 377.53,0 674.17,-305.92 674.17,-674.17 0,-367.19 -295.65,-674.17 -674.17,-674.17zm0 1035.83c-202.66,0 -361.67,-164.03 -361.67,-361.67 0,-197.98 159.34,-361.67 361.67,-361.67 202.66,0 361.67,164.02 361.67,361.67 0,197.98 -159.34,361.67 -361.67,361.67z"/>
  </g>
  <path class="fil1" d="M3587.55 4734.69c0,367.47 -295.9,674.17 -674.17,674.17l0 -312.5c202.26,0 361.67,-163.63 361.67,-361.67 0,-197.51 -158.9,-361.67 -361.67,-361.67l0 -312.5c378.27,0 674.17,306.72 674.17,674.17z"/>
 </g>
</svg>
