<svg id="Capa_1" enable-background="new 0 0 512 512" height="512" viewBox="0 0 512 512" width="512" xmlns="http://www.w3.org/2000/svg"><path d="m444.5 412.5h-30l60 92h30v-32c0-33-27-60-60-60z" fill="#233952"/><path d="m414.5 412.5h-112.5l-116 46 70 46h83.5l37.5-10 37.5 10h60v-32c0-33-27-60-60-60z" fill="#11427a"/><path d="m339.5 474.5h75v30h-75z" fill="#ffb739"/><path d="m210 412.5h-142.5c-33 0-60 27-60 60v32h248.5v-82z" fill="#1a64b6"/><path d="m210 412.5 46 47 46-47z" fill="#fff"/><path d="m136 192.5c-19.33 0-35 15.67-35 35s15.67 35 35 35h120v-70z" fill="#ffd17e"/><path d="m376 192.5h-120v70h120c19.33 0 35-15.67 35-35s-15.67-35-35-35z" fill="#ffb739"/><path d="m256 67.5v315c66.274 0 120-53.726 120-120v-100z" fill="#ffb739"/><path d="m256 67.5-120 95v100c0 66.274 53.726 120 120 120 49.706 0 90-53.726 90-120v-135z" fill="#ffd17e"/><path d="m143.5 95c0 62.132 50.368 112.5 112.5 112.5s112.5-50.368 112.5-112.5z" fill="#233952"/><path d="m286 97.5 60 65h30v-65z" fill="#233952"/><path d="m136 97.5h210v65h-210z" fill="#3d5168"/><path d="m412.806 76.124-99.582-54.127c-17.009-9.245-36.503-14.497-57.224-14.497l112.5 125h30c16.569 0 30-13.431 30-30 0-11.388-6.346-21.295-15.694-26.376z" fill="#233952"/><path d="m398.5 102.5c0-11.388-5.242-21.295-12.965-26.376l-82.263-54.127c-14.051-9.245-30.155-14.497-47.272-14.497-20.721 0-40.215 5.252-57.224 14.497l-99.582 54.127c-9.348 5.081-15.694 14.988-15.694 26.376 0 16.569 13.431 30 30 30h255c16.569 0 30-13.431 30-30z" fill="#11427a"/><path d="m218.5 87.5v23c0 22.225 15.089 41.615 37.5 52 22.411-10.385 37.5-29.775 37.5-52v-23z" fill="#ffb739"/><path d="m67.5 474.5h68.5v-30l-38.5-20-30 20z" fill="#3d5168"/><path d="m67.5 397.5v47h68.5v-47c0-8.284-6.716-15-15-15h-38.5c-8.284 0-15 6.716-15 15z" fill="#233952"/><path d="m444.5 405h-301v-7.5c0-12.406-10.093-22.5-22.5-22.5h-38.5c-12.407 0-22.5 10.094-22.5 22.5v7.927c-33.702 3.744-60 32.39-60 67.073v32c0 4.143 3.358 7.5 7.5 7.5h497c4.143 0 7.5-3.357 7.5-7.5v-32c0-37.22-30.28-67.5-67.5-67.5zm-188.5 43.777-28.165-28.777h56.33zm-49.154-28.777 41.654 42.559v34.441h-139.25v-15h26.75c4.142 0 7.5-3.357 7.5-7.5v-54.5zm-131.846 32h53.5v15h-53.5zm7.5-62h38.5c4.136 0 7.5 3.364 7.5 7.5v39.5h-53.5v-39.5c0-4.136 3.364-7.5 7.5-7.5zm-67.5 82.5c0-26.401 19.593-48.304 45-51.956v53.956c0 4.143 3.358 7.5 7.5 7.5h26.75v15h-79.25zm392 24.5h-60v-15h60zm90 0h-75v-22.5c0-4.143-3.357-7.5-7.5-7.5h-75c-4.143 0-7.5 3.357-7.5 7.5v22.5h-68.5v-34.44l41.654-42.56h139.346c28.948 0 52.5 23.552 52.5 52.5z"/><path d="m223.5 227.5c0-4.143-3.358-7.5-7.5-7.5h-27c-4.142 0-7.5 3.357-7.5 7.5s3.358 7.5 7.5 7.5h19.5c0 4.143 3.358 7.5 7.5 7.5s7.5-3.357 7.5-7.5z"/><path d="m323 220h-27c-4.143 0-7.5 3.357-7.5 7.5v7.5c0 4.143 3.357 7.5 7.5 7.5s7.5-3.357 7.5-7.5h19.5c4.143 0 7.5-3.357 7.5-7.5s-3.357-7.5-7.5-7.5z"/><path d="m275.696 276.841c-5.26 5.262-12.256 8.159-19.696 8.159s-14.436-2.897-19.697-8.158c-2.928-2.93-7.677-2.929-10.606-.001-2.929 2.93-2.929 7.678 0 10.606 8.094 8.095 18.856 12.553 30.303 12.553 11.446 0 22.209-4.458 30.304-12.552 2.929-2.93 2.929-7.678 0-10.607-2.93-2.928-7.678-2.928-10.608 0z"/><path d="m113.5 140h15v45.676c-19.868 3.554-35 20.949-35 41.824 0 20.94 15.226 38.379 35.186 41.857 3.575 67.128 59.311 120.643 127.314 120.643s123.739-53.515 127.314-120.643c19.96-3.479 35.186-20.917 35.186-41.857 0-20.875-15.132-38.27-35-41.824v-45.676h15c20.678 0 37.5-16.822 37.5-37.5 0-13.759-7.516-26.391-19.612-32.966l-99.582-54.127c-18.545-10.079-39.571-15.407-60.806-15.407s-42.261 5.328-60.806 15.407l-99.581 54.127c-12.098 6.575-19.613 19.207-19.613 32.966 0 20.678 16.822 37.5 37.5 37.5zm105.803 0c3.207 5.41 7.281 10.459 12.126 15h-87.929v-15zm110.21 30c-19.505 19.225-45.552 30-73.513 30s-54.008-10.775-73.514-30zm-73.513-15.859c-18.595-9.741-30-26.204-30-43.641v-15.5h60v15.5c0 17.437-11.405 33.899-30 43.641zm147.5 73.359c0 12.563-8.472 23.178-20 26.452v-11.452c0-4.143-3.357-7.5-7.5-7.5s-7.5 3.357-7.5 7.5v20c0 62.032-50.468 112.5-112.5 112.5-62.033 0-112.5-50.468-112.5-112.5v-20c0-4.143-3.358-7.5-7.5-7.5s-7.5 3.357-7.5 7.5v11.452c-11.528-3.274-20-13.889-20-26.452s8.472-23.178 20-26.452v11.452c0 4.143 3.358 7.5 7.5 7.5s7.5-3.357 7.5-7.5v-42.5h18.825c22.916 28.647 56.842 45 93.675 45 36.832 0 70.758-16.353 93.675-45h18.825v42.5c0 4.143 3.357 7.5 7.5 7.5s7.5-3.357 7.5-7.5v-11.452c11.528 3.274 20 13.889 20 26.452zm-35-72.5h-87.929c4.845-4.541 8.919-9.59 12.126-15h75.803zm-265.724-72.286 99.582-54.127c16.352-8.889 34.902-13.587 53.642-13.587s37.289 4.698 53.642 13.587l99.583 54.127c7.262 3.947 11.775 11.529 11.775 19.786 0 12.406-10.094 22.5-22.5 22.5h-99.438c1.268-4.712 1.938-9.568 1.938-14.5v-23c0-4.143-3.357-7.5-7.5-7.5h-75c-4.142 0-7.5 3.357-7.5 7.5v23c0 4.932.671 9.788 1.938 14.5h-99.438c-12.407 0-22.5-10.094-22.5-22.5 0-8.257 4.512-15.839 11.776-19.786z"/></svg>