<?xml version="1.0" encoding="UTF-8"?>
<!DOCTYPE svg PUBLIC "-//W3C//DTD SVG 1.1//EN" "http://www.w3.org/Graphics/SVG/1.1/DTD/svg11.dtd">
<!-- Creator: CorelDRAW 2018 (64-Bit) -->
<svg xmlns="http://www.w3.org/2000/svg" xml:space="preserve" width="5.82677in" height="8.26772in" version="1.1" style="shape-rendering:geometricPrecision; text-rendering:geometricPrecision; image-rendering:optimizeQuality; fill-rule:evenodd; clip-rule:evenodd"
viewBox="0 0 5826.77 8267.72"
 xmlns:xlink="http://www.w3.org/1999/xlink"
 enable-background="new 0 0 512 512">
 <defs>
  <style type="text/css">
   <![CDATA[
    .fil2 {fill:#666666}
    .fil1 {fill:gray}
    .fil0 {fill:#999999}
    .fil3 {fill:#999999}
    .fil4 {fill:#B3B3B3}
    .fil5 {fill:#CCCCCC}
   ]]>
  </style>
 </defs>
 <g id="Layer_x0020_1">
  <metadata id="CorelCorpID_0Corel-Layer"/>
  <path class="fil0" d="M4444.83 3808.02l-3052.39 0c-245.52,-382.5 -269.06,-1100.2 -159.06,-1440.93 133.85,-434.37 588.02,-639.9 985.83,-736.87 228.02,-55.73 497.6,-90 759.69,-84.27 450.73,9.79 879.79,137.81 1039.27,477.92 16.15,39.58 52.6,67.08 95.1,71.77 200.42,19.37 835.31,581.04 331.56,1712.39l-0 -0z"/>
  <path class="fil1" d="M4444.83 3808.02l-41.15 0c93.33,-1486.56 -589.27,-1640.52 -589.27,-1640.52 -175.1,-339.06 -612.08,-538.54 -835.52,-621.56 450.73,9.79 879.79,137.81 1039.27,477.92 16.15,39.58 52.6,67.08 95.1,71.77 200.42,19.37 835.31,581.04 331.56,1712.39l0 -0z"/>
  <path class="fil1" d="M4444.83 3808.02l-839.27 0 -0.52 -985.2c0,0 -66.98,-471.15 209.37,-655.31l0.1 -0c73.13,-48.75 170.1,-77.29 298.75,-71.87 200.42,19.37 835.31,581.04 331.56,1712.39l-0 0z"/>
  <path class="fil2" d="M4444.83 3808.02l-41.15 0c92.71,-1475.72 -579.37,-1638.22 -589.17,-1640.52 73.13,-48.75 170.1,-77.29 298.75,-71.87 200.42,19.37 835.31,581.04 331.56,1712.39l-0 -0z"/>
  <g id="_2288863581552">
   <path class="fil1" d="M1504.77 3786.43c-167.29,0 -302.92,135.29 -302.92,302.19 0,166.9 135.61,302.19 302.92,302.19 55.69,0 107.87,-14.99 152.7,-41.15l-43.63 -543.04c-33.83,-13.04 -70.61,-20.19 -109.06,-20.19z"/>
   <path class="fil1" d="M4321.97 3786.43c-38.45,0 -75.22,7.15 -109.05,20.18l-43.66 543.04c44.83,26.17 97.02,41.16 152.71,41.16 167.29,0 302.92,-135.29 302.92,-302.19 0,-166.9 -135.63,-302.19 -302.92,-302.19z"/>
  </g>
  <path class="fil3" d="M5043.58 6722.4l-4260.41 0c195.94,-650.52 1100.1,-414.27 1493.96,-765.73 113.13,-100.73 184.17,-250.21 184.17,-483.13l904.17 0c0,232.92 71.04,382.4 184.17,483.13 393.85,351.46 1298.02,115.21 1493.96,765.73l0 0z"/>
  <path class="fil4" d="M5043.58 6722.4l-473.44 0c-259.06,-587.71 -1356.25,44.06 -1490.83,-1248.85l286.15 0c0,232.92 71.04,382.4 184.17,483.13 393.85,351.46 1298.02,115.21 1493.96,765.73l0 0z"/>
  <path class="fil0" d="M5043.58 6722.4l-4260.41 0c195.94,-650.52 1100.1,-414.27 1493.96,-765.73 0,0 293.85,102.4 636.25,300.42 134.37,-77.71 261.25,-140.73 365.83,-188.54 161.98,-74.06 270.42,-111.87 270.42,-111.87 393.85,351.46 1298.02,115.21 1493.96,765.73z"/>
  <path class="fil4" d="M5043.58 6722.4l-473.44 0c-203.85,-462.4 -926.46,-169.9 -1290.94,-653.85 161.98,-74.06 270.42,-111.87 270.42,-111.87 393.85,351.46 1298.02,115.21 1493.96,765.73z"/>
  <g id="_2288857063824">
   <path class="fil5" d="M4206.29 3423.55l0 510.83c0,601.46 -257.5,1127.08 -640.73,1410.42 -191.46,141.67 -414.37,222.81 -652.19,222.81 -713.95,0 -1292.91,-731.25 -1292.91,-1633.23l0 -510.83c0,-331.77 269.17,-600.73 601.25,-600.73l1383.33 0c332.08,0 601.25,268.96 601.25,600.73z"/>
   <path class="fil4" d="M4206.29 3423.55l0 510.83c0,601.46 -257.5,1127.08 -640.73,1410.42 212.4,-309.48 328.23,-699.79 328.23,-1111.77l0 -750.41c0,-319.27 -221.77,-587.81 -519.48,-659.79l230.73 0c332.08,0 601.25,268.96 601.25,600.73z"/>
  </g>
  <g id="_2288862618048">
   <g>
    <path class="fil1" d="M2756.6 3763.54l-104.27 603.54 -295.52 0c-51.35,0 -96.35,-7.08 -135.94,-19.9 -102.19,-32.6 -167.6,-102.5 -209.27,-182.92 -90.94,-175.31 -69.06,-400.73 -69.06,-400.73l814.06 0z"/>
    <path class="fil1" d="M3469.93 4367.09l-295.52 0 -38.33 -221.77 -65.94 -381.77 814.06 0c0,0 58.65,603.54 -414.27,603.54z"/>
   </g>
   <g>
    <path class="fil1" d="M2730.98 3763.54l-510.1 583.65c-102.19,-32.6 -167.6,-102.5 -209.27,-182.92l341.98 -400.73 377.39 0z"/>
    <polygon class="fil1" points="3842.54,3763.54 3318.99,4367.09 3174.41,4367.09 3136.08,4145.31 3461.81,3763.54 "/>
   </g>
  </g>
 </g>
</svg>
