<?xml version="1.0" encoding="UTF-8"?>
<!DOCTYPE svg PUBLIC "-//W3C//DTD SVG 1.1//EN" "http://www.w3.org/Graphics/SVG/1.1/DTD/svg11.dtd">
<!-- Creator: CorelDRAW 2018 (64-Bit) -->
<svg xmlns="http://www.w3.org/2000/svg" xml:space="preserve" width="5.82677in" height="8.26772in" version="1.1" style="shape-rendering:geometricPrecision; text-rendering:geometricPrecision; image-rendering:optimizeQuality; fill-rule:evenodd; clip-rule:evenodd"
viewBox="0 0 5826.77 8267.72"
 xmlns:xlink="http://www.w3.org/1999/xlink">
 <defs>
  <style type="text/css">
   <![CDATA[
    .fil0 {fill:#999999}
   ]]>
  </style>
 </defs>
 <g id="Layer_x0020_1">
  <metadata id="CorelCorpID_0Corel-Layer"/>
  <path class="fil0" d="M1381.51 2975.75c-244.14,0 -442.25,-198.11 -442.25,-442.25 0,-244.14 198.11,-442.25 442.25,-442.25 244.14,0 442.25,198.11 442.25,442.25 0.58,244.14 -197.53,442.25 -442.25,442.25zm1475.92 220.83c0,0 0,0.58 0,0.58 0,0 0,0.58 0,0.58l0 -1.17zm-2226.99 222l0 840.8c0,122.36 96.72,221.42 219.09,221.42 49.53,0 99.64,-16.31 130.52,-44.28l0 1072.13c0,122.36 100.22,221.42 222.58,221.42 122.36,0 222.58,-99.06 222.58,-221.42 0,122.36 98.47,221.42 220.83,221.42 122.36,0 219.67,-99.06 219.67,-221.42l0 -2090.06 765.64 0c121.78,0 225.5,-96.14 226.08,-217.92 -0.58,-121.78 -104.3,-216.76 -226.08,-216.76l-763.31 0 -118.87 0c-99.64,69.92 -226.66,128.77 -365.92,128.77 -137.51,0 -264.54,-51.86 -363.59,-132.85 -219.67,26.22 -389.23,212.09 -389.23,438.76zm2122.11 2193.78c-26.8,26.8 -26.8,70.5 0,97.31l0 0c26.8,26.8 70.5,26.8 97.31,0l825.07 -825.07 825.07 825.07c26.8,26.8 70.5,26.8 97.31,0l0 0c26.8,-26.8 26.8,-70.5 0,-97.31l-874.02 -874.02c-26.8,-26.8 -70.5,-26.8 -97.31,0 0,0 0,0 0,0l-873.43 874.02zm-483.04 -2053.94l-209.76 0 0 818.08c0,118.87 97.89,215.01 216.17,215.01l2796.85 0c118.87,0 218.5,-96.14 218.5,-215.01l0 -1972.94c0,-118.87 -100.22,-212.68 -218.5,-212.68l-1054.65 0c0,-54.19 -46.03,-100.8 -103.13,-100.8l-480.71 0c-57.1,0 -103.13,46.61 -103.13,100.8l-1055.23 0c-118.87,0 -216.17,93.81 -216.17,212.68l0 439.92 209.76 0 0 -439.92c0,-4.66 1.75,-2.91 6.41,-2.91l2796.85 0c4.66,0 8.74,-2.33 8.74,2.91l0 1972.94c0,4.66 -4.08,12.82 -8.74,12.82l-2796.85 0c-4.66,0 -6.41,-8.16 -6.41,-12.82l0 -818.08z"/>
 </g>
</svg>
